<svg xmlns="http://www.w3.org/2000/svg" viewBox="0 0 425.05 160" fill="none">
  <defs><linearGradient id="homebase" x1="14" y1="100" x2="146" y2="60" gradientUnits="userSpaceOnUse"><stop stop-color="#AA8CD2"/><stop offset="1" stop-color="#EDB58C"/></linearGradient></defs>
  <g stroke="#4C2882" stroke-width="8" stroke-linecap="round" stroke-linejoin="round">
    <circle cx="80" cy="80" r="66"/>
    <path d="M18 103C29 99 35 85 46 87S61 108 78 93C90 83 98 72 105 66S118 61 125 69L139 86Q146 92 146 80"/>
  </g>
<path fill="#241A35" d="M177.41982257012393 99.0V62.184000000000005H182.94803652968037V76.9544422700587Q183.62485061969994 75.79175212002609 184.74285061969994 74.83828310502284Q185.86085061969993 73.88481409001957 187.44685061969994 73.28722113502936Q189.03285061969993 72.68962818003914 191.14860273972602 72.68962818003914Q194.33685061969993 72.68962818003914 196.21738160469667 73.93762818003914Q198.0979125896934 75.18562818003915 198.91285061969995 77.46387606001305Q199.72778864970647 79.74212393998695 199.72778864970647 82.87674363992173V99.0H194.19957469015003V84.39854924983692Q194.19957469015003 82.47373515981735 193.88676060013046 80.84345205479453Q193.5739465101109 79.2131689497717 192.4884422700587 78.21582387475539Q191.4029380300065 77.21847879973907 189.09461969993475 77.21847879973907Q186.14442530984996 77.21847879973907 184.54623091976515 79.25704500978473Q182.94803652968037 81.29561121983039 182.94803652968037 85.25086757990867V99.0ZM217.6060534898891 99.624Q215.2164957599478 99.624 212.94718590998042 98.83546901500327Q210.67787606001303 98.04693803000653 208.84122113502934 96.40040704500979Q207.00456621004565 94.75387606001304 205.90403522504891 92.1973450750163Q204.80350424005218 89.64081409001957 204.80350424005218 86.15681409001957Q204.80350424005218 82.6557521200261 205.90403522504891 80.10775212002609Q207.00456621004565 77.55975212002609 208.84122113502934 75.91322113502935Q210.67787606001303 74.26669015003262 212.94718590998042 73.47815916503588Q215.2164957599478 72.68962818003914 217.6060534898891 72.68962818003914Q219.99561121983038 72.68962818003914 222.26492106979777 73.47815916503588Q224.53423091976515 74.26669015003262 226.37088584474884 75.91322113502935Q228.20754076973253 77.55975212002609 229.30807175472927 80.10775212002609Q230.408602739726 82.6557521200261 230.408602739726 86.15681409001957Q230.408602739726 89.64081409001957 229.30807175472927 92.1973450750163Q228.20754076973253 94.75387606001304 226.37088584474884 96.40040704500979Q224.53423091976515 98.04693803000653 222.26492106979777 98.83546901500327Q219.99561121983038 99.624 217.6060534898891 99.624ZM217.6060534898891 95.02527332028701Q219.44555772994127 95.02527332028701 221.034 94.11364514024788Q222.62244227005868 93.20201696020874 223.62100848010436 91.24957469015004Q224.61957469015002 89.29713242009133 224.61957469015002 86.15681409001957Q224.61957469015002 83.01649575994782 223.62100848010436 81.0640534898891Q222.62244227005868 79.1116112198304 221.034 78.19998303979125Q219.44555772994127 77.28835485975212 217.6060534898891 77.28835485975212Q215.80148727984343 77.28835485975212 214.19557599478145 78.19998303979125Q212.5896647097195 79.1116112198304 211.59109849967382 81.0640534898891Q210.59253228962817 83.01649575994782 210.59253228962817 86.15681409001957Q210.59253228962817 89.29713242009133 211.59109849967382 91.24957469015004Q212.5896647097195 93.20201696020874 214.19557599478145 94.11364514024788Q215.80148727984343 95.02527332028701 217.6060534898891 95.02527332028701ZM235.5558225701239 99.0V73.208H239.99122243966076L241.08403652968033 76.9544422700587Q241.7608506196999 75.79175212002609 242.83538160469664 74.83828310502284Q243.9099125896934 73.88481409001957 245.4175055446836 73.28722113502936Q246.92509849967382 72.68962818003914 248.8490984996738 72.68962818003914Q251.84722243966075 72.68962818003914 253.6757534246575 73.85150424005218Q255.50428440965425 75.01338030006524 256.3533463796477 77.14538030006523Q257.89628440965424 74.83869015003262 260.14040834964123 73.76415916503588Q262.38453228962817 72.68962818003914 265.0885322896281 72.68962818003914Q268.206904109589 72.68962818003914 270.04396607958245 73.93762818003914Q271.88102804957595 75.18562818003915 272.7044970645792 77.46387606001305Q273.5279660795825 79.74212393998695 273.5279660795825 82.87674363992173V99.0H267.9997521200261V84.39854924983692Q267.9997521200261 82.47373515981735 267.66946901500324 80.84345205479453Q267.3391859099804 79.2131689497717 266.280088714938 78.21582387475539Q265.2209915198956 77.21847879973907 262.9825492498369 77.21847879973907Q260.3110450097847 77.21847879973907 258.8172576647097 79.22292106979779Q257.3234703196347 81.2273633398565 257.3234703196347 85.13143378995434V99.0H251.77819439008476V84.39854924983692Q251.77819439008476 82.47373515981735 251.4564422700587 80.84345205479453Q251.13469015003258 79.2131689497717 250.0841239399869 78.21582387475539Q249.03355772994126 77.21847879973907 246.81217742987602 77.21847879973907Q245.02548727984342 77.21847879973907 243.74092106979776 78.12929288975864Q242.45635485975208 79.04010697977822 241.77019569471622 80.81867318982387Q241.08403652968033 82.59723939986954 241.08403652968033 85.18261969993478V99.0ZM291.72230136986303 99.624Q287.63217742987604 99.624 284.696212654925 97.88118590998043Q281.7602478799739 96.13837181996087 280.175876060013 93.08784083496413Q278.5915042400522 90.03730984996739 278.5915042400522 86.0877521200261Q278.5915042400522 81.97975212002609 280.33228310502284 78.98122113502936Q282.0730619699935 75.98269015003262 285.0094337899543 74.33615916503588Q287.94580560991517 72.68962818003914 291.5500534898891 72.68962818003914Q294.6521774298761 72.68962818003914 297.06042530984996 73.88603522504891Q299.46867318982385 75.0824422700587 301.0794520547945 77.15350424005219Q302.69023091976516 79.22456621004567 303.43488584474886 81.91840704500979Q304.17954076973257 84.6122478799739 303.9544787997391 87.5900534898891H284.20828440965425Q284.45040834964124 89.76269015003261 285.2230984996738 91.2048845401174Q285.99578864970647 92.64707893020221 287.0723548597521 93.4892380952381Q288.1489210697978 94.33139726027397 289.3640182648402 94.6783352902805Q290.5791154598826 95.02527332028701 291.6540534898891 95.02527332028701Q293.7186196999348 95.02527332028701 295.14943378995434 94.37445923026745Q296.5802478799739 93.72364514024788 297.41306196999346 92.68201696020874L302.30754076973255 94.27125636007828Q300.6987971298108 96.74612393998696 297.9537703848663 98.18506196999348Q295.2087436399217 99.624 291.72230136986303 99.624ZM284.2261604696673 83.67950424005218H298.4392563600783Q298.4051324200913 81.91069015003262 297.537787345075 80.42584083496413Q296.6704422700587 78.94099151989563 295.16893803000653 78.03708023483367Q293.6674337899543 77.13316894977169 291.618301369863 77.13316894977169Q289.9876112198304 77.13316894977169 288.4170450097847 77.74945205479452Q286.8464787997391 78.36573515981735 285.7268506196999 79.78964644487932Q284.6072224396608 81.2135577299413 284.2261604696673 83.67950424005218ZM322.50141682974555 99.624Q320.69522243966077 99.624 319.134815394651 99.11212393998696Q317.5744083496412 98.6002478799739 316.33575342465747 97.60290280495761Q315.0970984996738 96.6055577299413 314.30003652968037 95.23649575994781L313.20722243966077 99.0H308.7718225701239V62.184000000000005H314.30003652968037V77.09338030006523Q315.0970984996738 75.70725636007828 316.33575342465747 74.7188493150685Q317.5744083496412 73.73044227005872 319.134815394651 73.21003522504893Q320.69522243966077 72.68962818003914 322.50141682974555 72.68962818003914Q325.5848506196999 72.68962818003914 328.1239125896934 74.28415916503587Q330.66297455968686 75.87869015003261 332.17138160469665 78.86869015003262Q333.67978864970644 81.85869015003261 333.67978864970644 86.10562818003913Q333.67978864970644 90.35256621004567 332.17138160469665 93.37669015003262Q330.66297455968686 96.40081409001957 328.1239125896934 98.01240704500978Q325.5848506196999 99.624 322.50141682974555 99.624ZM320.9138056099152 95.09514938030007Q323.9005662100456 95.09514938030007 325.80019439008476 92.72630006523158Q327.6998225701239 90.35745075016308 327.6998225701239 86.10562818003913Q327.6998225701239 81.83592954990215 325.80019439008476 79.52720417482061Q323.9005662100456 77.21847879973907 320.9138056099152 77.21847879973907Q317.90998303979126 77.21847879973907 316.0103548597521 79.48454924983693Q314.11072667971297 81.75061969993477 314.11072667971297 86.15681409001957Q314.11072667971297 89.08831833007176 314.9780717547293 91.075698630137Q315.84541682974555 93.06307893020222 317.3899830397912 94.07911415525115Q318.9345492498369 95.09514938030007 320.9138056099152 95.09514938030007ZM345.8453803000652 99.624Q343.40138030006517 99.624 341.3559112850619 98.74040704500979Q339.3104422700587 97.85681409001957 338.09697325505545 96.2017521200261Q336.88350424005216 94.54669015003262 336.88350424005216 92.20669015003261Q336.88350424005216 89.13869015003262 339.0240352250489 87.26669015003262Q341.1645662100456 85.39469015003262 345.1255042400521 84.36322113502936Q349.0864422700587 83.3317521200261 354.4960704500978 82.86293803000652V82.27550424005219Q354.4960704500978 79.70718590998044 353.1428493150685 78.24752250489237Q351.7896281800391 76.78785909980431 349.0116816699282 76.78785909980431Q346.8756112198304 76.78785909980431 345.46145205479445 77.75148727984345Q344.0472928897586 78.71511545988258 343.6312928897586 80.48474363992173L338.6173803000652 78.86138030006524Q339.7256281800391 76.01681409001957 342.506 74.35322113502934Q345.28637181996083 72.68962818003914 349.04336333985646 72.68962818003914Q354.4846731898238 72.68962818003914 357.1248858447488 75.22097325505544Q359.7650984996738 77.75231833007176 359.7650984996738 83.244V89.15656621004567Q359.7650984996738 91.13500848010437 359.88656751467704 92.93672537508155Q360.00803652968034 94.73844227005871 360.23350554468357 96.26228310502283Q360.45897455968685 97.78612393998695 360.6840365296803 99.0H355.5880704500978L354.58219439008474 95.60049575994782Q353.37076060013044 97.55861969993477 351.1956986301369 98.59130984996739Q349.02063666014345 99.624 345.8453803000652 99.624ZM347.48173515981733 95.50870711024136Q349.408177429876 95.50870711024136 351.00555772994124 94.84895499021528Q352.6029380300065 94.18920287018918 353.54950424005216 92.63569863013699Q354.4960704500978 91.0821943900848 354.4960704500978 88.392V86.7393633398565Q348.94017742987603 87.19111545988258 345.8758238747554 88.34608871493802Q342.8114703196347 89.50106196999347 342.8114703196347 91.94913242009133Q342.8114703196347 93.54651272015656 344.07856751467705 94.52760991519895Q345.3456647097195 95.50870711024136 347.48173515981733 95.50870711024136ZM376.11748727984343 99.64106196999347Q373.6084957599478 99.64106196999347 371.31399999999996 98.91346901500326Q369.01950424005213 98.18587606001304 367.2783183300717 96.73881409001956Q365.5371324200913 95.29175212002609 364.6360704500978 93.14187606001305L369.6670450097847 91.29182257012394Q370.20492106979776 93.25320287018917 372.11267318982385 94.26842400521852Q374.02042530984994 95.28364514024788 376.1865492498369 95.28364514024788Q378.4956816699282 95.28364514024788 380.1613098499673 94.34520287018918Q381.8269380300065 93.40676060013047 381.8269380300065 91.77444227005871Q381.8269380300065 90.38343378995434 380.6455577299413 89.6018056099152Q379.46417742987603 88.82017742987605 376.80892106979775 88.28148727984345L373.33224787997386 87.57136333985649Q371.04587606001303 87.06842530984997 369.2526901500326 86.19377038486627Q367.4595042400522 85.31911545988258 366.42844227005867 83.87246053489889Q365.3973803000652 82.4258056099152 365.3973803000652 80.24099151989563Q365.3973803000652 77.83437181996086 366.8602831050228 76.12812393998695Q368.3231859099804 74.42187606001305 370.7302126549249 73.52081409001957Q373.1372393998695 72.61975212002609 375.96067318982386 72.61975212002609Q379.35529288975863 72.61975212002609 382.2648506196999 73.95428310502282Q385.1744083496412 75.28881409001957 386.47278016960206 78.21543378995435L381.51168166992824 80.03054924983692Q380.86980560991515 78.48679712981082 379.2728323548597 77.72345205479452Q377.67585909980426 76.96010697977822 375.69985909980426 76.96010697977822Q373.54998303979124 76.96010697977822 372.1780717547293 77.77626614481409Q370.8061604696673 78.59242530984997 370.8061604696673 80.03461969993477Q370.8061604696673 81.25093803000652 371.7701956947162 81.9110971950424Q372.73423091976514 82.57125636007828 374.79961121983035 83.02300848010437L378.34453228962815 83.7501943900848Q381.185028049576 84.3221943900848 383.16955903457267 85.21472537508154Q385.1540900195694 86.10725636007828 386.20343509458576 87.58925636007828Q387.25278016960203 89.07125636007828 387.25278016960203 91.46407045009785Q387.25278016960203 93.99175212002609 385.7549393346379 95.83693803000652Q384.2570984996738 97.68212393998695 381.74607175472926 98.66159295499021Q379.2350450097847 99.64106196999347 376.11748727984343 99.64106196999347ZM403.418301369863 99.624Q399.328177429876 99.624 396.39221265492495 97.88118590998043Q393.4562478799739 96.13837181996087 391.87187606001305 93.08784083496413Q390.28750424005216 90.03730984996739 390.28750424005216 86.0877521200261Q390.28750424005216 81.97975212002609 392.0282831050228 78.98122113502936Q393.76906196999346 75.98269015003262 396.7054337899543 74.33615916503588Q399.64180560991514 72.68962818003914 403.24605348988905 72.68962818003914Q406.34817742987605 72.68962818003914 408.75642530984993 73.88603522504891Q411.1646731898238 75.0824422700587 412.77545205479447 77.15350424005219Q414.3862309197651 79.22456621004567 415.13088584474883 81.91840704500979Q415.87554076973254 84.6122478799739 415.65047879973906 87.5900534898891H395.9042844096542Q396.1464083496412 89.76269015003261 396.91909849967385 91.2048845401174Q397.69178864970644 92.64707893020221 398.7683548597521 93.4892380952381Q399.84492106979775 94.33139726027397 401.06001826484015 94.6783352902805Q402.27511545988256 95.02527332028701 403.3500534898891 95.02527332028701Q405.41461969993475 95.02527332028701 406.8454337899543 94.37445923026745Q408.2762478799739 93.72364514024788 409.10906196999343 92.68201696020874L414.0035407697325 94.27125636007828Q412.3947971298108 96.74612393998696 409.6497703848662 98.18506196999348Q406.90474363992166 99.624 403.418301369863 99.624ZM395.9221604696673 83.67950424005218H410.13525636007824Q410.1011324200913 81.91069015003262 409.233787345075 80.42584083496413Q408.36644227005866 78.94099151989563 406.86493803000644 78.03708023483367Q405.3634337899543 77.13316894977169 403.31430136986296 77.13316894977169Q401.68361121983037 77.13316894977169 400.11304500978474 77.74945205479452Q398.54247879973906 78.36573515981735 397.42285061969994 79.78964644487932Q396.3032224396608 81.2135577299413 395.9221604696673 83.67950424005218Z"/></svg>
